<svg id="visual" viewBox="0 0 900 300" width="900" height="300" xmlns="http://www.w3.org/2000/svg" xmlns:xlink="http://www.w3.org/1999/xlink" version="1.1"><rect x="0" y="0" width="900" height="300" fill="#F4F1E9"></rect><path d="M0 275L21.5 266.3C43 257.7 86 240.3 128.8 237.5C171.7 234.7 214.3 246.3 257.2 244.2C300 242 343 226 385.8 228.5C428.7 231 471.3 252 514.2 254.2C557 256.3 600 239.7 642.8 239.5C685.7 239.3 728.3 255.7 771.2 253C814 250.3 857 228.7 878.5 217.8L900 207L900 0L878.5 0C857 0 814 0 771.2 0C728.3 0 685.7 0 642.8 0C600 0 557 0 514.2 0C471.3 0 428.7 0 385.8 0C343 0 300 0 257.2 0C214.3 0 171.7 0 128.8 0C86 0 43 0 21.5 0L0 0Z" fill="#FFF" stroke-linecap="round" stroke-linejoin="miter"></path></svg>